<svg width="360" height="640" viewBox="0 0 360 640" fill="none" xmlns="http://www.w3.org/2000/svg">
<rect width="360" height="640" fill="url(#paint0_linear)"/>
<circle cx="180" cy="140" r="63.5" stroke="black" stroke-width="15"/>
<path d="M160.078 297.754C159.418 298.543 158.487 299.158 157.282 299.597C156.078 300.028 154.743 300.244 153.278 300.244C151.74 300.244 150.389 299.91 149.226 299.243C148.07 298.568 147.175 297.591 146.54 296.313C145.913 295.036 145.592 293.534 145.576 291.809V290.601C145.576 288.826 145.873 287.292 146.467 285.999C147.069 284.696 147.932 283.704 149.055 283.02C150.186 282.328 151.508 281.982 153.022 281.982C155.13 281.982 156.778 282.487 157.966 283.496C159.154 284.497 159.858 285.958 160.078 287.878H156.513C156.35 286.861 155.988 286.117 155.427 285.645C154.873 285.173 154.108 284.937 153.132 284.937C151.887 284.937 150.939 285.404 150.288 286.34C149.637 287.276 149.307 288.668 149.299 290.515V291.65C149.299 293.514 149.653 294.922 150.361 295.874C151.069 296.826 152.106 297.302 153.474 297.302C154.849 297.302 155.83 297.009 156.416 296.423V293.359H153.083V290.662H160.078V297.754ZM169.636 293.494H166.718V300H163.056V282.227H169.66C171.76 282.227 173.379 282.694 174.519 283.63C175.658 284.566 176.228 285.889 176.228 287.598C176.228 288.81 175.963 289.823 175.434 290.637C174.913 291.443 174.12 292.086 173.054 292.566L176.899 299.829V300H172.968L169.636 293.494ZM166.718 290.527H169.672C170.592 290.527 171.304 290.295 171.809 289.832C172.313 289.36 172.565 288.713 172.565 287.891C172.565 287.052 172.325 286.393 171.845 285.913C171.373 285.433 170.645 285.193 169.66 285.193H166.718V290.527ZM193.623 291.516C193.623 293.266 193.313 294.8 192.695 296.118C192.076 297.437 191.189 298.454 190.034 299.17C188.886 299.886 187.568 300.244 186.079 300.244C184.606 300.244 183.291 299.89 182.136 299.182C180.98 298.474 180.085 297.465 179.45 296.155C178.815 294.836 178.494 293.323 178.486 291.614V290.735C178.486 288.985 178.799 287.447 179.426 286.121C180.061 284.786 180.952 283.765 182.099 283.057C183.255 282.34 184.573 281.982 186.054 281.982C187.535 281.982 188.85 282.34 189.997 283.057C191.153 283.765 192.044 284.786 192.67 286.121C193.305 287.447 193.623 288.981 193.623 290.723V291.516ZM189.912 290.71C189.912 288.847 189.578 287.431 188.911 286.462C188.243 285.494 187.291 285.01 186.054 285.01C184.825 285.01 183.877 285.49 183.21 286.45C182.543 287.402 182.205 288.802 182.197 290.649V291.516C182.197 293.331 182.53 294.739 183.198 295.74C183.865 296.741 184.825 297.241 186.079 297.241C187.307 297.241 188.251 296.761 188.911 295.801C189.57 294.832 189.903 293.424 189.912 291.577V290.71ZM210.126 294.873L212.519 282.227H216.169L212.226 300H208.54L205.646 288.11L202.753 300H199.067L195.124 282.227H198.774L201.179 294.849L204.108 282.227H207.209L210.126 294.873ZM93.9277 319.234L97.6265 311.227H101.63L95.7954 322.555V329H92.0723V322.555L86.2373 311.227H90.2534L93.9277 319.234ZM117.487 320.516C117.487 322.266 117.178 323.8 116.56 325.118C115.941 326.437 115.054 327.454 113.898 328.17C112.751 328.886 111.433 329.244 109.943 329.244C108.47 329.244 107.156 328.89 106 328.182C104.845 327.474 103.95 326.465 103.315 325.155C102.68 323.836 102.359 322.323 102.351 320.614V319.735C102.351 317.985 102.664 316.447 103.291 315.121C103.925 313.786 104.816 312.765 105.964 312.057C107.119 311.34 108.438 310.982 109.919 310.982C111.4 310.982 112.714 311.34 113.862 312.057C115.017 312.765 115.909 313.786 116.535 315.121C117.17 316.447 117.487 317.981 117.487 319.723V320.516ZM113.776 319.71C113.776 317.847 113.443 316.431 112.775 315.462C112.108 314.494 111.156 314.01 109.919 314.01C108.69 314.01 107.742 314.49 107.075 315.45C106.407 316.402 106.07 317.802 106.062 319.649V320.516C106.062 322.331 106.395 323.739 107.062 324.74C107.73 325.741 108.69 326.241 109.943 326.241C111.172 326.241 112.116 325.761 112.775 324.801C113.435 323.832 113.768 322.424 113.776 320.577V319.71ZM133.601 311.227V322.933C133.601 324.878 132.99 326.416 131.77 327.547C130.557 328.679 128.897 329.244 126.789 329.244C124.714 329.244 123.066 328.695 121.845 327.596C120.625 326.498 120.002 324.988 119.978 323.067V311.227H123.64V322.958C123.64 324.121 123.916 324.972 124.47 325.509C125.031 326.038 125.804 326.302 126.789 326.302C128.848 326.302 129.894 325.22 129.926 323.055V311.227H133.601ZM143.183 322.494H140.266V329H136.604V311.227H143.208C145.307 311.227 146.927 311.694 148.066 312.63C149.205 313.566 149.775 314.889 149.775 316.598C149.775 317.81 149.51 318.823 148.981 319.637C148.461 320.443 147.667 321.086 146.601 321.566L150.446 328.829V329H146.516L143.183 322.494ZM140.266 319.527H143.22C144.139 319.527 144.851 319.295 145.356 318.832C145.861 318.36 146.113 317.713 146.113 316.891C146.113 316.052 145.873 315.393 145.393 314.913C144.921 314.433 144.192 314.193 143.208 314.193H140.266V319.527ZM158.796 329V311.227H165.021C167.178 311.227 168.814 311.642 169.929 312.472C171.044 313.294 171.601 314.502 171.601 316.097C171.601 316.968 171.377 317.737 170.93 318.404C170.482 319.063 169.86 319.548 169.062 319.857C169.973 320.085 170.69 320.545 171.21 321.236C171.739 321.928 172.004 322.774 172.004 323.775C172.004 325.484 171.459 326.778 170.368 327.657C169.278 328.536 167.723 328.984 165.705 329H158.796ZM162.458 321.261V326.058H165.595C166.458 326.058 167.129 325.855 167.609 325.448C168.098 325.033 168.342 324.463 168.342 323.739C168.342 322.111 167.5 321.285 165.815 321.261H162.458ZM162.458 318.673H165.168C167.015 318.64 167.939 317.904 167.939 316.463C167.939 315.658 167.703 315.08 167.231 314.73C166.767 314.372 166.031 314.193 165.021 314.193H162.458V318.673ZM188.215 311.227V322.933C188.215 324.878 187.604 326.416 186.384 327.547C185.171 328.679 183.511 329.244 181.403 329.244C179.328 329.244 177.68 328.695 176.459 327.596C175.239 326.498 174.616 324.988 174.592 323.067V311.227H178.254V322.958C178.254 324.121 178.531 324.972 179.084 325.509C179.646 326.038 180.419 326.302 181.403 326.302C183.462 326.302 184.508 325.22 184.541 323.055V311.227H188.215ZM200.434 324.337C200.434 323.645 200.19 323.116 199.702 322.75C199.213 322.376 198.334 321.985 197.065 321.578C195.795 321.163 194.79 320.756 194.05 320.357C192.032 319.267 191.022 317.798 191.022 315.951C191.022 314.99 191.291 314.136 191.828 313.387C192.373 312.63 193.151 312.04 194.16 311.617C195.177 311.194 196.316 310.982 197.578 310.982C198.847 310.982 199.978 311.214 200.971 311.678C201.964 312.134 202.733 312.781 203.278 313.619C203.832 314.457 204.108 315.41 204.108 316.476H200.446C200.446 315.662 200.19 315.031 199.677 314.583C199.165 314.128 198.444 313.9 197.517 313.9C196.621 313.9 195.926 314.091 195.429 314.474C194.933 314.848 194.685 315.344 194.685 315.963C194.685 316.541 194.973 317.025 195.551 317.416C196.137 317.806 196.996 318.172 198.127 318.514C200.21 319.141 201.728 319.918 202.68 320.846C203.632 321.773 204.108 322.929 204.108 324.312C204.108 325.851 203.527 327.059 202.363 327.938C201.199 328.809 199.632 329.244 197.663 329.244C196.296 329.244 195.051 328.996 193.928 328.5C192.805 327.995 191.946 327.307 191.352 326.437C190.766 325.566 190.473 324.557 190.473 323.409H194.147C194.147 325.37 195.319 326.351 197.663 326.351C198.534 326.351 199.213 326.176 199.702 325.826C200.19 325.468 200.434 324.972 200.434 324.337ZM210.493 329H206.831V311.227H210.493V329ZM228.352 329H224.689L217.561 317.306V329H213.898V311.227H217.561L224.702 322.945V311.227H228.352V329ZM242.243 321.297H235.212V326.058H243.464V329H231.55V311.227H243.439V314.193H235.212V318.429H242.243V321.297ZM254.829 324.337C254.829 323.645 254.584 323.116 254.096 322.75C253.608 322.376 252.729 321.985 251.459 321.578C250.19 321.163 249.185 320.756 248.444 320.357C246.426 319.267 245.417 317.798 245.417 315.951C245.417 314.99 245.686 314.136 246.223 313.387C246.768 312.63 247.545 312.04 248.554 311.617C249.571 311.194 250.711 310.982 251.972 310.982C253.242 310.982 254.373 311.214 255.366 311.678C256.359 312.134 257.128 312.781 257.673 313.619C258.226 314.457 258.503 315.41 258.503 316.476H254.841C254.841 315.662 254.584 315.031 254.072 314.583C253.559 314.128 252.839 313.9 251.911 313.9C251.016 313.9 250.32 314.091 249.824 314.474C249.327 314.848 249.079 315.344 249.079 315.963C249.079 316.541 249.368 317.025 249.946 317.416C250.532 317.806 251.39 318.172 252.521 318.514C254.605 319.141 256.123 319.918 257.075 320.846C258.027 321.773 258.503 322.929 258.503 324.312C258.503 325.851 257.921 327.059 256.757 327.938C255.594 328.809 254.027 329.244 252.058 329.244C250.69 329.244 249.445 328.996 248.322 328.5C247.199 327.995 246.341 327.307 245.747 326.437C245.161 325.566 244.868 324.557 244.868 323.409H248.542C248.542 325.37 249.714 326.351 252.058 326.351C252.928 326.351 253.608 326.176 254.096 325.826C254.584 325.468 254.829 324.972 254.829 324.337ZM270.209 324.337C270.209 323.645 269.965 323.116 269.477 322.75C268.989 322.376 268.11 321.985 266.84 321.578C265.571 321.163 264.566 320.756 263.825 320.357C261.807 319.267 260.798 317.798 260.798 315.951C260.798 314.99 261.066 314.136 261.604 313.387C262.149 312.63 262.926 312.04 263.935 311.617C264.952 311.194 266.092 310.982 267.353 310.982C268.623 310.982 269.754 311.214 270.747 311.678C271.739 312.134 272.508 312.781 273.054 313.619C273.607 314.457 273.884 315.41 273.884 316.476H270.222C270.222 315.662 269.965 315.031 269.453 314.583C268.94 314.128 268.22 313.9 267.292 313.9C266.397 313.9 265.701 314.091 265.205 314.474C264.708 314.848 264.46 315.344 264.46 315.963C264.46 316.541 264.749 317.025 265.327 317.416C265.913 317.806 266.771 318.172 267.902 318.514C269.986 319.141 271.503 319.918 272.456 320.846C273.408 321.773 273.884 322.929 273.884 324.312C273.884 325.851 273.302 327.059 272.138 327.938C270.974 328.809 269.408 329.244 267.438 329.244C266.071 329.244 264.826 328.996 263.703 328.5C262.58 327.995 261.722 327.307 261.127 326.437C260.542 325.566 260.249 324.557 260.249 323.409H263.923C263.923 325.37 265.095 326.351 267.438 326.351C268.309 326.351 268.989 326.176 269.477 325.826C269.965 325.468 270.209 324.972 270.209 324.337Z" fill="black"/>
<path d="M39.7158 395.924L41.1514 388.336H43.3413L40.9756 399H38.7637L37.0278 391.866L35.292 399H33.0801L30.7144 388.336H32.9043L34.3472 395.909L36.105 388.336H37.9653L39.7158 395.924ZM47.8091 399.146C46.647 399.146 45.6997 398.79 44.9673 398.077C44.2397 397.364 43.876 396.415 43.876 395.228V395.023C43.876 394.227 44.0298 393.517 44.3374 392.892C44.645 392.262 45.0796 391.778 45.6411 391.441C46.2075 391.1 46.8521 390.929 47.5747 390.929C48.6587 390.929 49.5107 391.271 50.1309 391.954C50.7559 392.638 51.0684 393.607 51.0684 394.862V395.726H46.022C46.0903 396.244 46.2954 396.659 46.6372 396.971C46.9839 397.284 47.4209 397.44 47.9482 397.44C48.7637 397.44 49.4009 397.145 49.8599 396.554L50.8999 397.718C50.5825 398.167 50.1528 398.519 49.6108 398.773C49.0688 399.022 48.4683 399.146 47.8091 399.146ZM47.5674 392.643C47.1475 392.643 46.8057 392.784 46.542 393.067C46.2832 393.351 46.1172 393.756 46.0439 394.283H48.9883V394.115C48.9785 393.646 48.8516 393.285 48.6074 393.031C48.3633 392.772 48.0166 392.643 47.5674 392.643ZM62.9043 396.122L63.9443 391.075H65.9878L63.9663 399H62.1938L60.6924 394.012L59.1909 399H57.4258L55.4043 391.075H57.4478L58.4805 396.114L59.9307 391.075H61.4614L62.9043 396.122ZM69.2764 399H67.1523V391.075H69.2764V399ZM67.0278 389.024C67.0278 388.707 67.1328 388.446 67.3428 388.241C67.5576 388.036 67.8481 387.933 68.2144 387.933C68.5757 387.933 68.8638 388.036 69.0786 388.241C69.2935 388.446 69.4009 388.707 69.4009 389.024C69.4009 389.347 69.291 389.61 69.0713 389.815C68.8564 390.021 68.5708 390.123 68.2144 390.123C67.8579 390.123 67.5698 390.021 67.3501 389.815C67.1353 389.61 67.0278 389.347 67.0278 389.024ZM73.2607 399H71.1367V387.75H73.2607V399ZM77.2451 399H75.1211V387.75H77.2451V399ZM84.7964 391.939C85.3579 391.266 86.0635 390.929 86.9131 390.929C88.6318 390.929 89.5034 391.927 89.5278 393.924V399H87.4111V393.983C87.4111 393.529 87.3135 393.194 87.1182 392.979C86.9229 392.76 86.5981 392.65 86.144 392.65C85.5239 392.65 85.0747 392.889 84.7964 393.368V399H82.6797V387.75H84.7964V391.939ZM94.772 399.146C93.6099 399.146 92.6626 398.79 91.9302 398.077C91.2026 397.364 90.8389 396.415 90.8389 395.228V395.023C90.8389 394.227 90.9927 393.517 91.3003 392.892C91.6079 392.262 92.0425 391.778 92.604 391.441C93.1704 391.1 93.8149 390.929 94.5376 390.929C95.6216 390.929 96.4736 391.271 97.0938 391.954C97.7188 392.638 98.0312 393.607 98.0312 394.862V395.726H92.9849C93.0532 396.244 93.2583 396.659 93.6001 396.971C93.9468 397.284 94.3838 397.44 94.9111 397.44C95.7266 397.44 96.3638 397.145 96.8228 396.554L97.8628 397.718C97.5454 398.167 97.1157 398.519 96.5737 398.773C96.0317 399.022 95.4312 399.146 94.772 399.146ZM94.5303 392.643C94.1104 392.643 93.7686 392.784 93.5049 393.067C93.2461 393.351 93.0801 393.756 93.0068 394.283H95.9512V394.115C95.9414 393.646 95.8145 393.285 95.5703 393.031C95.3262 392.772 94.9795 392.643 94.5303 392.643ZM101.474 399H99.3496V387.75H101.474V399ZM110.358 395.111C110.358 396.332 110.08 397.311 109.523 398.048C108.971 398.78 108.224 399.146 107.282 399.146C106.481 399.146 105.834 398.868 105.341 398.312V402.047H103.224V391.075H105.187L105.26 391.852C105.773 391.236 106.442 390.929 107.267 390.929C108.244 390.929 109.003 391.29 109.545 392.013C110.087 392.735 110.358 393.731 110.358 395.001V395.111ZM108.241 394.957C108.241 394.22 108.109 393.651 107.846 393.25C107.587 392.85 107.208 392.65 106.71 392.65C106.046 392.65 105.59 392.904 105.341 393.412V396.656C105.6 397.179 106.061 397.44 106.725 397.44C107.736 397.44 108.241 396.612 108.241 394.957ZM118.371 396.004L119.835 391.075H122.106L118.92 400.23L118.744 400.648C118.271 401.683 117.489 402.201 116.4 402.201C116.093 402.201 115.78 402.154 115.463 402.062V400.458L115.785 400.465C116.186 400.465 116.483 400.404 116.679 400.282C116.879 400.16 117.035 399.957 117.147 399.674L117.396 399.022L114.621 391.075H116.898L118.371 396.004ZM122.494 394.964C122.494 394.178 122.646 393.478 122.948 392.862C123.251 392.247 123.686 391.771 124.252 391.434C124.823 391.097 125.485 390.929 126.237 390.929C127.306 390.929 128.178 391.256 128.852 391.91C129.53 392.564 129.909 393.453 129.987 394.576L130.001 395.118C130.001 396.334 129.662 397.311 128.983 398.048C128.305 398.78 127.394 399.146 126.251 399.146C125.109 399.146 124.196 398.78 123.512 398.048C122.833 397.315 122.494 396.319 122.494 395.06V394.964ZM124.611 395.118C124.611 395.87 124.752 396.446 125.036 396.847C125.319 397.242 125.724 397.44 126.251 397.44C126.764 397.44 127.165 397.245 127.453 396.854C127.741 396.458 127.885 395.829 127.885 394.964C127.885 394.227 127.741 393.656 127.453 393.25C127.165 392.845 126.759 392.643 126.237 392.643C125.719 392.643 125.319 392.845 125.036 393.25C124.752 393.651 124.611 394.273 124.611 395.118ZM136.051 398.194C135.529 398.829 134.806 399.146 133.883 399.146C133.034 399.146 132.384 398.902 131.935 398.414C131.491 397.926 131.264 397.21 131.254 396.268V391.075H133.371V396.195C133.371 397.02 133.747 397.433 134.499 397.433C135.216 397.433 135.709 397.184 135.978 396.686V391.075H138.102V399H136.11L136.051 398.194ZM145.968 389.127V391.075H147.323V392.628H145.968V396.583C145.968 396.876 146.024 397.086 146.137 397.213C146.249 397.34 146.464 397.403 146.781 397.403C147.016 397.403 147.223 397.386 147.404 397.352V398.956C146.989 399.083 146.562 399.146 146.122 399.146C144.638 399.146 143.881 398.397 143.852 396.898V392.628H142.694V391.075H143.852V389.127H145.968ZM147.953 394.964C147.953 394.178 148.104 393.478 148.407 392.862C148.71 392.247 149.145 391.771 149.711 391.434C150.282 391.097 150.944 390.929 151.696 390.929C152.765 390.929 153.637 391.256 154.311 391.91C154.989 392.564 155.368 393.453 155.446 394.576L155.46 395.118C155.46 396.334 155.121 397.311 154.442 398.048C153.764 398.78 152.853 399.146 151.71 399.146C150.568 399.146 149.655 398.78 148.971 398.048C148.292 397.315 147.953 396.319 147.953 395.06V394.964ZM150.07 395.118C150.07 395.87 150.211 396.446 150.495 396.847C150.778 397.242 151.183 397.44 151.71 397.44C152.223 397.44 152.624 397.245 152.912 396.854C153.2 396.458 153.344 395.829 153.344 394.964C153.344 394.227 153.2 393.656 152.912 393.25C152.624 392.845 152.218 392.643 151.696 392.643C151.178 392.643 150.778 392.845 150.495 393.25C150.211 393.651 150.07 394.273 150.07 395.118ZM160.192 394.979C160.192 393.763 160.48 392.784 161.056 392.042C161.637 391.3 162.418 390.929 163.4 390.929C164.269 390.929 164.945 391.227 165.429 391.822L165.517 391.075H167.436V398.736C167.436 399.43 167.277 400.033 166.959 400.545C166.647 401.058 166.205 401.449 165.634 401.717C165.062 401.986 164.394 402.12 163.627 402.12C163.046 402.12 162.479 402.003 161.928 401.769C161.376 401.539 160.958 401.241 160.675 400.875L161.613 399.586C162.14 400.177 162.78 400.472 163.532 400.472C164.093 400.472 164.53 400.321 164.843 400.018C165.155 399.72 165.312 399.295 165.312 398.744V398.319C164.823 398.871 164.181 399.146 163.385 399.146C162.433 399.146 161.662 398.775 161.071 398.033C160.485 397.286 160.192 396.297 160.192 395.067V394.979ZM162.309 395.133C162.309 395.851 162.453 396.415 162.741 396.825C163.029 397.23 163.424 397.433 163.927 397.433C164.572 397.433 165.033 397.191 165.312 396.708V393.375C165.028 392.892 164.572 392.65 163.942 392.65C163.434 392.65 163.034 392.857 162.741 393.272C162.453 393.688 162.309 394.308 162.309 395.133ZM173.522 393.06C173.234 393.021 172.98 393.001 172.76 393.001C171.959 393.001 171.435 393.272 171.186 393.814V399H169.069V391.075H171.068L171.127 392.02C171.552 391.292 172.14 390.929 172.892 390.929C173.126 390.929 173.346 390.96 173.551 391.024L173.522 393.06ZM173.954 394.964C173.954 394.178 174.105 393.478 174.408 392.862C174.711 392.247 175.146 391.771 175.712 391.434C176.283 391.097 176.945 390.929 177.697 390.929C178.766 390.929 179.638 391.256 180.312 391.91C180.99 392.564 181.369 393.453 181.447 394.576L181.461 395.118C181.461 396.334 181.122 397.311 180.443 398.048C179.765 398.78 178.854 399.146 177.711 399.146C176.569 399.146 175.656 398.78 174.972 398.048C174.293 397.315 173.954 396.319 173.954 395.06V394.964ZM176.071 395.118C176.071 395.87 176.212 396.446 176.496 396.847C176.779 397.242 177.184 397.44 177.711 397.44C178.224 397.44 178.625 397.245 178.913 396.854C179.201 396.458 179.345 395.829 179.345 394.964C179.345 394.227 179.201 393.656 178.913 393.25C178.625 392.845 178.219 392.643 177.697 392.643C177.179 392.643 176.779 392.845 176.496 393.25C176.212 393.651 176.071 394.273 176.071 395.118ZM189.657 396.122L190.697 391.075H192.741L190.719 399H188.947L187.445 394.012L185.944 399H184.179L182.157 391.075H184.201L185.233 396.114L186.684 391.075H188.214L189.657 396.122ZM200.49 396.004L201.955 391.075H204.225L201.039 400.23L200.863 400.648C200.39 401.683 199.608 402.201 198.52 402.201C198.212 402.201 197.899 402.154 197.582 402.062V400.458L197.904 400.465C198.305 400.465 198.603 400.404 198.798 400.282C198.998 400.16 199.154 399.957 199.267 399.674L199.516 399.022L196.74 391.075H199.018L200.49 396.004ZM204.613 394.964C204.613 394.178 204.765 393.478 205.067 392.862C205.37 392.247 205.805 391.771 206.371 391.434C206.942 391.097 207.604 390.929 208.356 390.929C209.425 390.929 210.297 391.256 210.971 391.91C211.649 392.564 212.028 393.453 212.106 394.576L212.121 395.118C212.121 396.334 211.781 397.311 211.103 398.048C210.424 398.78 209.513 399.146 208.371 399.146C207.228 399.146 206.315 398.78 205.631 398.048C204.953 397.315 204.613 396.319 204.613 395.06V394.964ZM206.73 395.118C206.73 395.87 206.872 396.446 207.155 396.847C207.438 397.242 207.843 397.44 208.371 397.44C208.883 397.44 209.284 397.245 209.572 396.854C209.86 396.458 210.004 395.829 210.004 394.964C210.004 394.227 209.86 393.656 209.572 393.25C209.284 392.845 208.878 392.643 208.356 392.643C207.838 392.643 207.438 392.845 207.155 393.25C206.872 393.651 206.73 394.273 206.73 395.118ZM218.17 398.194C217.648 398.829 216.925 399.146 216.002 399.146C215.153 399.146 214.503 398.902 214.054 398.414C213.61 397.926 213.383 397.21 213.373 396.268V391.075H215.49V396.195C215.49 397.02 215.866 397.433 216.618 397.433C217.335 397.433 217.829 397.184 218.097 396.686V391.075H220.221V399H218.229L218.17 398.194ZM226.271 393.06C225.983 393.021 225.729 393.001 225.509 393.001C224.708 393.001 224.184 393.272 223.935 393.814V399H221.818V391.075H223.817L223.876 392.02C224.301 391.292 224.889 390.929 225.641 390.929C225.875 390.929 226.095 390.96 226.3 391.024L226.271 393.06ZM238.173 395.111C238.173 396.38 237.902 397.372 237.36 398.084C236.818 398.792 236.061 399.146 235.089 399.146C234.23 399.146 233.544 398.817 233.031 398.158L232.936 399H231.032V387.75H233.148V391.786C233.637 391.214 234.279 390.929 235.075 390.929C236.042 390.929 236.798 391.285 237.345 391.998C237.897 392.706 238.173 393.705 238.173 394.994V395.111ZM236.056 394.957C236.056 394.156 235.929 393.573 235.675 393.207C235.421 392.835 235.043 392.65 234.54 392.65C233.866 392.65 233.402 392.926 233.148 393.478V396.605C233.407 397.162 233.876 397.44 234.555 397.44C235.238 397.44 235.688 397.103 235.902 396.429C236.005 396.107 236.056 395.616 236.056 394.957ZM244.23 398.194C243.708 398.829 242.985 399.146 242.062 399.146C241.212 399.146 240.563 398.902 240.114 398.414C239.669 397.926 239.442 397.21 239.433 396.268V391.075H241.549V396.195C241.549 397.02 241.925 397.433 242.677 397.433C243.395 397.433 243.888 397.184 244.157 396.686V391.075H246.281V399H244.289L244.23 398.194ZM252.169 396.81C252.169 396.551 252.04 396.349 251.781 396.202C251.527 396.051 251.117 395.917 250.551 395.799C248.666 395.404 247.724 394.603 247.724 393.397C247.724 392.694 248.014 392.108 248.595 391.639C249.181 391.166 249.945 390.929 250.888 390.929C251.894 390.929 252.697 391.166 253.297 391.639C253.903 392.113 254.206 392.728 254.206 393.485H252.089C252.089 393.182 251.991 392.933 251.796 392.738C251.601 392.538 251.295 392.438 250.88 392.438C250.524 392.438 250.248 392.518 250.053 392.679C249.857 392.84 249.76 393.045 249.76 393.294C249.76 393.529 249.87 393.719 250.089 393.866C250.314 394.007 250.69 394.132 251.217 394.239C251.745 394.342 252.189 394.459 252.55 394.591C253.668 395.001 254.228 395.711 254.228 396.722C254.228 397.445 253.917 398.031 253.297 398.48C252.677 398.924 251.876 399.146 250.895 399.146C250.231 399.146 249.64 399.029 249.123 398.795C248.61 398.556 248.207 398.231 247.914 397.821C247.621 397.406 247.475 396.959 247.475 396.48H249.481C249.501 396.856 249.64 397.145 249.899 397.345C250.158 397.545 250.504 397.645 250.939 397.645C251.344 397.645 251.649 397.569 251.854 397.418C252.064 397.262 252.169 397.059 252.169 396.81ZM257.831 399H255.707V391.075H257.831V399ZM255.583 389.024C255.583 388.707 255.688 388.446 255.897 388.241C256.112 388.036 256.403 387.933 256.769 387.933C257.13 387.933 257.418 388.036 257.633 388.241C257.848 388.446 257.956 388.707 257.956 389.024C257.956 389.347 257.846 389.61 257.626 389.815C257.411 390.021 257.125 390.123 256.769 390.123C256.413 390.123 256.125 390.021 255.905 389.815C255.69 389.61 255.583 389.347 255.583 389.024ZM261.53 391.075L261.596 391.991C262.162 391.283 262.921 390.929 263.874 390.929C264.713 390.929 265.338 391.175 265.749 391.668C266.159 392.162 266.369 392.899 266.378 393.88V399H264.262V393.932C264.262 393.482 264.164 393.158 263.969 392.958C263.773 392.752 263.449 392.65 262.995 392.65C262.399 392.65 261.952 392.904 261.654 393.412V399H259.538V391.075H261.53ZM271.637 399.146C270.475 399.146 269.528 398.79 268.795 398.077C268.068 397.364 267.704 396.415 267.704 395.228V395.023C267.704 394.227 267.858 393.517 268.166 392.892C268.473 392.262 268.908 391.778 269.469 391.441C270.036 391.1 270.68 390.929 271.403 390.929C272.487 390.929 273.339 391.271 273.959 391.954C274.584 392.638 274.896 393.607 274.896 394.862V395.726H269.85C269.918 396.244 270.124 396.659 270.465 396.971C270.812 397.284 271.249 397.44 271.776 397.44C272.592 397.44 273.229 397.145 273.688 396.554L274.728 397.718C274.411 398.167 273.981 398.519 273.439 398.773C272.897 399.022 272.296 399.146 271.637 399.146ZM271.396 392.643C270.976 392.643 270.634 392.784 270.37 393.067C270.111 393.351 269.945 393.756 269.872 394.283H272.816V394.115C272.807 393.646 272.68 393.285 272.436 393.031C272.191 392.772 271.845 392.643 271.396 392.643ZM280.397 396.81C280.397 396.551 280.268 396.349 280.009 396.202C279.755 396.051 279.345 395.917 278.778 395.799C276.894 395.404 275.951 394.603 275.951 393.397C275.951 392.694 276.242 392.108 276.823 391.639C277.409 391.166 278.173 390.929 279.115 390.929C280.121 390.929 280.924 391.166 281.525 391.639C282.13 392.113 282.433 392.728 282.433 393.485H280.316C280.316 393.182 280.219 392.933 280.023 392.738C279.828 392.538 279.523 392.438 279.108 392.438C278.751 392.438 278.476 392.518 278.28 392.679C278.085 392.84 277.987 393.045 277.987 393.294C277.987 393.529 278.097 393.719 278.317 393.866C278.542 394.007 278.917 394.132 279.445 394.239C279.972 394.342 280.417 394.459 280.778 394.591C281.896 395.001 282.455 395.711 282.455 396.722C282.455 397.445 282.145 398.031 281.525 398.48C280.905 398.924 280.104 399.146 279.123 399.146C278.458 399.146 277.868 399.029 277.35 398.795C276.837 398.556 276.435 398.231 276.142 397.821C275.849 397.406 275.702 396.959 275.702 396.48H277.709C277.729 396.856 277.868 397.145 278.126 397.345C278.385 397.545 278.732 397.645 279.167 397.645C279.572 397.645 279.877 397.569 280.082 397.418C280.292 397.262 280.397 397.059 280.397 396.81ZM288.117 396.81C288.117 396.551 287.987 396.349 287.729 396.202C287.475 396.051 287.064 395.917 286.498 395.799C284.613 395.404 283.671 394.603 283.671 393.397C283.671 392.694 283.961 392.108 284.542 391.639C285.128 391.166 285.893 390.929 286.835 390.929C287.841 390.929 288.644 391.166 289.245 391.639C289.85 392.113 290.153 392.728 290.153 393.485H288.036C288.036 393.182 287.938 392.933 287.743 392.738C287.548 392.538 287.243 392.438 286.828 392.438C286.471 392.438 286.195 392.518 286 392.679C285.805 392.84 285.707 393.045 285.707 393.294C285.707 393.529 285.817 393.719 286.037 393.866C286.261 394.007 286.637 394.132 287.165 394.239C287.692 394.342 288.136 394.459 288.498 394.591C289.616 395.001 290.175 395.711 290.175 396.722C290.175 397.445 289.865 398.031 289.245 398.48C288.625 398.924 287.824 399.146 286.842 399.146C286.178 399.146 285.587 399.029 285.07 398.795C284.557 398.556 284.154 398.231 283.861 397.821C283.568 397.406 283.422 396.959 283.422 396.48H285.429C285.448 396.856 285.587 397.145 285.846 397.345C286.105 397.545 286.452 397.645 286.886 397.645C287.292 397.645 287.597 397.569 287.802 397.418C288.012 397.262 288.117 397.059 288.117 396.81ZM300.026 398.194C299.503 398.829 298.781 399.146 297.858 399.146C297.008 399.146 296.359 398.902 295.91 398.414C295.465 397.926 295.238 397.21 295.229 396.268V391.075H297.345V396.195C297.345 397.02 297.721 397.433 298.473 397.433C299.191 397.433 299.684 397.184 299.953 396.686V391.075H302.077V399H300.084L300.026 398.194ZM307.965 396.81C307.965 396.551 307.836 396.349 307.577 396.202C307.323 396.051 306.913 395.917 306.347 395.799C304.462 395.404 303.52 394.603 303.52 393.397C303.52 392.694 303.81 392.108 304.391 391.639C304.977 391.166 305.741 390.929 306.684 390.929C307.689 390.929 308.493 391.166 309.093 391.639C309.699 392.113 310.001 392.728 310.001 393.485H307.885C307.885 393.182 307.787 392.933 307.592 392.738C307.396 392.538 307.091 392.438 306.676 392.438C306.32 392.438 306.044 392.518 305.849 392.679C305.653 392.84 305.556 393.045 305.556 393.294C305.556 393.529 305.666 393.719 305.885 393.866C306.11 394.007 306.486 394.132 307.013 394.239C307.541 394.342 307.985 394.459 308.346 394.591C309.464 395.001 310.023 395.711 310.023 396.722C310.023 397.445 309.713 398.031 309.093 398.48C308.473 398.924 307.672 399.146 306.691 399.146C306.027 399.146 305.436 399.029 304.918 398.795C304.406 398.556 304.003 398.231 303.71 397.821C303.417 397.406 303.271 396.959 303.271 396.48H305.277C305.297 396.856 305.436 397.145 305.695 397.345C305.954 397.545 306.3 397.645 306.735 397.645C307.14 397.645 307.445 397.569 307.65 397.418C307.86 397.262 307.965 397.059 307.965 396.81ZM313.627 399H311.503V391.075H313.627V399ZM311.378 389.024C311.378 388.707 311.483 388.446 311.693 388.241C311.908 388.036 312.199 387.933 312.565 387.933C312.926 387.933 313.214 388.036 313.429 388.241C313.644 388.446 313.751 388.707 313.751 389.024C313.751 389.347 313.642 389.61 313.422 389.815C313.207 390.021 312.921 390.123 312.565 390.123C312.208 390.123 311.92 390.021 311.701 389.815C311.486 389.61 311.378 389.347 311.378 389.024ZM317.326 391.075L317.392 391.991C317.958 391.283 318.717 390.929 319.669 390.929C320.509 390.929 321.134 391.175 321.544 391.668C321.955 392.162 322.165 392.899 322.174 393.88V399H320.058V393.932C320.058 393.482 319.96 393.158 319.765 392.958C319.569 392.752 319.245 392.65 318.791 392.65C318.195 392.65 317.748 392.904 317.45 393.412V399H315.333V391.075H317.326ZM323.478 394.979C323.478 393.763 323.766 392.784 324.342 392.042C324.923 391.3 325.705 390.929 326.686 390.929C327.555 390.929 328.231 391.227 328.715 391.822L328.803 391.075H330.722V398.736C330.722 399.43 330.563 400.033 330.246 400.545C329.933 401.058 329.491 401.449 328.92 401.717C328.349 401.986 327.68 402.12 326.913 402.12C326.332 402.12 325.766 402.003 325.214 401.769C324.662 401.539 324.245 401.241 323.961 400.875L324.899 399.586C325.426 400.177 326.066 400.472 326.818 400.472C327.379 400.472 327.816 400.321 328.129 400.018C328.441 399.72 328.598 399.295 328.598 398.744V398.319C328.109 398.871 327.467 399.146 326.671 399.146C325.719 399.146 324.948 398.775 324.357 398.033C323.771 397.286 323.478 396.297 323.478 395.067V394.979ZM325.595 395.133C325.595 395.851 325.739 396.415 326.027 396.825C326.315 397.23 326.71 397.433 327.213 397.433C327.858 397.433 328.319 397.191 328.598 396.708V393.375C328.314 392.892 327.858 392.65 327.228 392.65C326.72 392.65 326.32 392.857 326.027 393.272C325.739 393.688 325.595 394.308 325.595 395.133ZM137.663 412.964C137.663 412.178 137.814 411.478 138.117 410.862C138.419 410.247 138.854 409.771 139.42 409.434C139.992 409.097 140.653 408.929 141.405 408.929C142.475 408.929 143.346 409.256 144.02 409.91C144.699 410.564 145.077 411.453 145.155 412.576L145.17 413.118C145.17 414.334 144.831 415.311 144.152 416.048C143.473 416.78 142.562 417.146 141.42 417.146C140.277 417.146 139.364 416.78 138.681 416.048C138.002 415.315 137.663 414.319 137.663 413.06V412.964ZM139.779 413.118C139.779 413.87 139.921 414.446 140.204 414.847C140.487 415.242 140.893 415.44 141.42 415.44C141.933 415.44 142.333 415.245 142.621 414.854C142.909 414.458 143.053 413.829 143.053 412.964C143.053 412.227 142.909 411.656 142.621 411.25C142.333 410.845 141.928 410.643 141.405 410.643C140.888 410.643 140.487 410.845 140.204 411.25C139.921 411.651 139.779 412.273 139.779 413.118ZM148.422 409.075L148.488 409.991C149.054 409.283 149.813 408.929 150.766 408.929C151.605 408.929 152.23 409.175 152.641 409.668C153.051 410.162 153.261 410.899 153.271 411.88V417H151.154V411.932C151.154 411.482 151.056 411.158 150.861 410.958C150.666 410.752 150.341 410.65 149.887 410.65C149.291 410.65 148.844 410.904 148.546 411.412V417H146.43V409.075H148.422ZM157.116 417H154.992V405.75H157.116V417ZM161.1 417H158.976V409.075H161.1V417ZM158.852 407.024C158.852 406.707 158.957 406.446 159.167 406.241C159.381 406.036 159.672 405.933 160.038 405.933C160.399 405.933 160.688 406.036 160.902 406.241C161.117 406.446 161.225 406.707 161.225 407.024C161.225 407.347 161.115 407.61 160.895 407.815C160.68 408.021 160.395 408.123 160.038 408.123C159.682 408.123 159.394 408.021 159.174 407.815C158.959 407.61 158.852 407.347 158.852 407.024ZM164.799 409.075L164.865 409.991C165.431 409.283 166.19 408.929 167.143 408.929C167.982 408.929 168.607 409.175 169.018 409.668C169.428 410.162 169.638 410.899 169.647 411.88V417H167.531V411.932C167.531 411.482 167.433 411.158 167.238 410.958C167.042 410.752 166.718 410.65 166.264 410.65C165.668 410.65 165.221 410.904 164.923 411.412V417H162.807V409.075H164.799ZM174.906 417.146C173.744 417.146 172.797 416.79 172.064 416.077C171.337 415.364 170.973 414.415 170.973 413.228V413.023C170.973 412.227 171.127 411.517 171.435 410.892C171.742 410.262 172.177 409.778 172.738 409.441C173.305 409.1 173.949 408.929 174.672 408.929C175.756 408.929 176.608 409.271 177.228 409.954C177.853 410.638 178.166 411.607 178.166 412.862V413.726H173.119C173.188 414.244 173.393 414.659 173.734 414.971C174.081 415.284 174.518 415.44 175.045 415.44C175.861 415.44 176.498 415.145 176.957 414.554L177.997 415.718C177.68 416.167 177.25 416.519 176.708 416.773C176.166 417.022 175.565 417.146 174.906 417.146ZM174.665 410.643C174.245 410.643 173.903 410.784 173.639 411.067C173.38 411.351 173.214 411.756 173.141 412.283H176.085V412.115C176.076 411.646 175.949 411.285 175.705 411.031C175.46 410.772 175.114 410.643 174.665 410.643ZM187.401 414.81C187.401 414.551 187.272 414.349 187.013 414.202C186.759 414.051 186.349 413.917 185.783 413.799C183.898 413.404 182.956 412.603 182.956 411.397C182.956 410.694 183.246 410.108 183.827 409.639C184.413 409.166 185.177 408.929 186.12 408.929C187.125 408.929 187.929 409.166 188.529 409.639C189.135 410.113 189.438 410.728 189.438 411.485H187.321C187.321 411.182 187.223 410.933 187.028 410.738C186.833 410.538 186.527 410.438 186.112 410.438C185.756 410.438 185.48 410.518 185.285 410.679C185.089 410.84 184.992 411.045 184.992 411.294C184.992 411.529 185.102 411.719 185.321 411.866C185.546 412.007 185.922 412.132 186.449 412.239C186.977 412.342 187.421 412.459 187.782 412.591C188.9 413.001 189.459 413.711 189.459 414.722C189.459 415.445 189.149 416.031 188.529 416.48C187.909 416.924 187.108 417.146 186.127 417.146C185.463 417.146 184.872 417.029 184.354 416.795C183.842 416.556 183.439 416.231 183.146 415.821C182.853 415.406 182.707 414.959 182.707 414.48H184.713C184.733 414.856 184.872 415.145 185.131 415.345C185.39 415.545 185.736 415.645 186.171 415.645C186.576 415.645 186.881 415.569 187.086 415.418C187.296 415.262 187.401 415.059 187.401 414.81ZM194.477 417.146C193.314 417.146 192.367 416.79 191.635 416.077C190.907 415.364 190.543 414.415 190.543 413.228V413.023C190.543 412.227 190.697 411.517 191.005 410.892C191.312 410.262 191.747 409.778 192.309 409.441C192.875 409.1 193.52 408.929 194.242 408.929C195.326 408.929 196.178 409.271 196.798 409.954C197.423 410.638 197.736 411.607 197.736 412.862V413.726H192.689C192.758 414.244 192.963 414.659 193.305 414.971C193.651 415.284 194.088 415.44 194.616 415.44C195.431 415.44 196.068 415.145 196.527 414.554L197.567 415.718C197.25 416.167 196.82 416.519 196.278 416.773C195.736 417.022 195.136 417.146 194.477 417.146ZM194.235 410.643C193.815 410.643 193.473 410.784 193.209 411.067C192.951 411.351 192.785 411.756 192.711 412.283H195.656V412.115C195.646 411.646 195.519 411.285 195.275 411.031C195.031 410.772 194.684 410.643 194.235 410.643ZM203.397 411.06C203.109 411.021 202.855 411.001 202.636 411.001C201.835 411.001 201.31 411.272 201.061 411.814V417H198.944V409.075H200.944L201.002 410.02C201.427 409.292 202.016 408.929 202.768 408.929C203.002 408.929 203.222 408.96 203.427 409.024L203.397 411.06ZM207.521 414.415L208.993 409.075H211.205L208.532 417H206.51L203.837 409.075H206.049L207.521 414.415ZM215.688 417.146C214.525 417.146 213.578 416.79 212.846 416.077C212.118 415.364 211.754 414.415 211.754 413.228V413.023C211.754 412.227 211.908 411.517 212.216 410.892C212.523 410.262 212.958 409.778 213.52 409.441C214.086 409.1 214.73 408.929 215.453 408.929C216.537 408.929 217.389 409.271 218.009 409.954C218.634 410.638 218.947 411.607 218.947 412.862V413.726H213.9C213.969 414.244 214.174 414.659 214.516 414.971C214.862 415.284 215.299 415.44 215.827 415.44C216.642 415.44 217.279 415.145 217.738 414.554L218.778 415.718C218.461 416.167 218.031 416.519 217.489 416.773C216.947 417.022 216.347 417.146 215.688 417.146ZM215.446 410.643C215.026 410.643 214.684 410.784 214.42 411.067C214.162 411.351 213.996 411.756 213.922 412.283H216.867V412.115C216.857 411.646 216.73 411.285 216.486 411.031C216.242 410.772 215.895 410.643 215.446 410.643ZM224.608 411.06C224.32 411.021 224.066 411.001 223.847 411.001C223.046 411.001 222.521 411.272 222.272 411.814V417H220.155V409.075H222.155L222.213 410.02C222.638 409.292 223.227 408.929 223.979 408.929C224.213 408.929 224.433 408.96 224.638 409.024L224.608 411.06Z" fill="black"/>
<rect x="30" y="471" width="125" height="45" fill="#E3C000"/>
<rect x="209" y="471" width="125" height="45" fill="#E3C000"/>
<path d="M68.8516 497.882H74.4502V500H66.2148V487.203H68.8516V497.882ZM85.9199 493.892C85.9199 495.151 85.6973 496.256 85.252 497.205C84.8066 498.154 84.168 498.887 83.3359 499.402C82.5098 499.918 81.5605 500.176 80.4883 500.176C79.4277 500.176 78.4814 499.921 77.6494 499.411C76.8174 498.901 76.1729 498.175 75.7158 497.231C75.2588 496.282 75.0273 495.192 75.0215 493.962V493.329C75.0215 492.069 75.2471 490.962 75.6982 490.007C76.1553 489.046 76.7969 488.311 77.623 487.801C78.4551 487.285 79.4043 487.027 80.4707 487.027C81.5371 487.027 82.4834 487.285 83.3096 487.801C84.1416 488.311 84.7832 489.046 85.2344 490.007C85.6914 490.962 85.9199 492.066 85.9199 493.32V493.892ZM83.248 493.312C83.248 491.97 83.0078 490.95 82.5273 490.253C82.0469 489.556 81.3613 489.207 80.4707 489.207C79.5859 489.207 78.9033 489.553 78.4229 490.244C77.9424 490.93 77.6992 491.938 77.6934 493.268V493.892C77.6934 495.198 77.9336 496.212 78.4141 496.933C78.8945 497.653 79.5859 498.014 80.4883 498.014C81.373 498.014 82.0527 497.668 82.5273 496.977C83.002 496.279 83.2422 495.266 83.248 493.936V493.312ZM97.9609 498.383C97.4863 498.951 96.8154 499.394 95.9482 499.71C95.0811 500.021 94.1201 500.176 93.0654 500.176C91.958 500.176 90.9854 499.936 90.1475 499.455C89.3154 498.969 88.6709 498.266 88.2139 497.346C87.7627 496.426 87.5312 495.345 87.5195 494.103V493.232C87.5195 491.955 87.7334 490.851 88.1611 489.919C88.5947 488.981 89.2158 488.267 90.0244 487.774C90.8389 487.276 91.791 487.027 92.8809 487.027C94.3984 487.027 95.585 487.391 96.4404 488.117C97.2959 488.838 97.8027 489.89 97.9609 491.272H95.3945C95.2773 490.54 95.0166 490.004 94.6123 489.664C94.2139 489.324 93.6631 489.154 92.96 489.154C92.0635 489.154 91.3809 489.491 90.9121 490.165C90.4434 490.839 90.2061 491.841 90.2002 493.171V493.988C90.2002 495.33 90.4551 496.344 90.9648 497.029C91.4746 497.715 92.2217 498.058 93.2061 498.058C94.1963 498.058 94.9023 497.847 95.3242 497.425V495.219H92.9248V493.276H97.9609V498.383ZM102.909 500H100.272V487.203H102.909V500ZM115.768 500H113.131L107.998 491.58V500H105.361V487.203H107.998L113.14 495.641V487.203H115.768V500Z" fill="black"/>
<path d="M245.149 496.643C245.149 496.145 244.974 495.764 244.622 495.5C244.271 495.23 243.638 494.949 242.724 494.656C241.81 494.357 241.086 494.064 240.553 493.777C239.1 492.992 238.373 491.935 238.373 490.604C238.373 489.913 238.566 489.298 238.953 488.759C239.346 488.214 239.905 487.789 240.632 487.484C241.364 487.18 242.185 487.027 243.093 487.027C244.007 487.027 244.821 487.194 245.536 487.528C246.251 487.856 246.805 488.322 247.197 488.926C247.596 489.529 247.795 490.215 247.795 490.982H245.158C245.158 490.396 244.974 489.942 244.604 489.62C244.235 489.292 243.717 489.128 243.049 489.128C242.404 489.128 241.903 489.266 241.546 489.541C241.188 489.811 241.01 490.168 241.01 490.613C241.01 491.029 241.218 491.378 241.634 491.659C242.056 491.94 242.674 492.204 243.488 492.45C244.988 492.901 246.081 493.461 246.767 494.129C247.452 494.797 247.795 495.629 247.795 496.625C247.795 497.732 247.376 498.603 246.538 499.235C245.7 499.862 244.572 500.176 243.154 500.176C242.17 500.176 241.273 499.997 240.465 499.64C239.656 499.276 239.038 498.781 238.61 498.154C238.188 497.527 237.978 496.801 237.978 495.975H240.623C240.623 497.387 241.467 498.093 243.154 498.093C243.781 498.093 244.271 497.967 244.622 497.715C244.974 497.457 245.149 497.1 245.149 496.643ZM252.392 500H249.755V487.203H252.392V500ZM264.969 498.383C264.494 498.951 263.823 499.394 262.956 499.71C262.089 500.021 261.128 500.176 260.073 500.176C258.966 500.176 257.993 499.936 257.155 499.455C256.323 498.969 255.679 498.266 255.222 497.346C254.771 496.426 254.539 495.345 254.527 494.103V493.232C254.527 491.955 254.741 490.851 255.169 489.919C255.603 488.981 256.224 488.267 257.032 487.774C257.847 487.276 258.799 487.027 259.889 487.027C261.406 487.027 262.593 487.391 263.448 488.117C264.304 488.838 264.811 489.89 264.969 491.272H262.402C262.285 490.54 262.024 490.004 261.62 489.664C261.222 489.324 260.671 489.154 259.968 489.154C259.071 489.154 258.389 489.491 257.92 490.165C257.451 490.839 257.214 491.841 257.208 493.171V493.988C257.208 495.33 257.463 496.344 257.973 497.029C258.482 497.715 259.229 498.058 260.214 498.058C261.204 498.058 261.91 497.847 262.332 497.425V495.219H259.933V493.276H264.969V498.383ZM277.52 500H274.883L269.75 491.58V500H267.113V487.203H269.75L274.892 495.641V487.203H277.52V500ZM293.99 487.203V495.632C293.99 497.032 293.551 498.14 292.672 498.954C291.799 499.769 290.604 500.176 289.086 500.176C287.592 500.176 286.405 499.78 285.526 498.989C284.647 498.198 284.199 497.111 284.182 495.729V487.203H286.818V495.649C286.818 496.487 287.018 497.1 287.416 497.486C287.82 497.867 288.377 498.058 289.086 498.058C290.568 498.058 291.321 497.278 291.345 495.72V487.203H293.99ZM298.789 495.491V500H296.152V487.203H301.145C302.105 487.203 302.949 487.379 303.676 487.73C304.408 488.082 304.971 488.583 305.363 489.233C305.756 489.878 305.952 490.613 305.952 491.439C305.952 492.693 305.521 493.684 304.66 494.41C303.805 495.131 302.618 495.491 301.101 495.491H298.789ZM298.789 493.355H301.145C301.842 493.355 302.372 493.191 302.735 492.863C303.104 492.535 303.289 492.066 303.289 491.457C303.289 490.83 303.104 490.323 302.735 489.937C302.366 489.55 301.856 489.351 301.206 489.339H298.789V493.355Z" fill="black"/>
<path d="M124.653 554H122.017V548.516H116.875V554H114.238V541.203H116.875V546.389H122.017V541.203H124.653V554ZM137.477 547.892C137.477 549.151 137.254 550.256 136.809 551.205C136.363 552.154 135.725 552.887 134.893 553.402C134.066 553.918 133.117 554.176 132.045 554.176C130.984 554.176 130.038 553.921 129.206 553.411C128.374 552.901 127.729 552.175 127.272 551.231C126.815 550.282 126.584 549.192 126.578 547.962V547.329C126.578 546.069 126.804 544.962 127.255 544.007C127.712 543.046 128.354 542.311 129.18 541.801C130.012 541.285 130.961 541.027 132.027 541.027C133.094 541.027 134.04 541.285 134.866 541.801C135.698 542.311 136.34 543.046 136.791 544.007C137.248 544.962 137.477 546.066 137.477 547.32V547.892ZM134.805 547.312C134.805 545.97 134.564 544.95 134.084 544.253C133.604 543.556 132.918 543.207 132.027 543.207C131.143 543.207 130.46 543.553 129.979 544.244C129.499 544.93 129.256 545.938 129.25 547.268V547.892C129.25 549.198 129.49 550.212 129.971 550.933C130.451 551.653 131.143 552.014 132.045 552.014C132.93 552.014 133.609 551.668 134.084 550.977C134.559 550.279 134.799 549.266 134.805 547.936V547.312ZM149.359 550.309L151.082 541.203H153.71L150.871 554H148.217L146.134 545.439L144.051 554H141.396L138.558 541.203H141.186L142.917 550.291L145.026 541.203H147.259L149.359 550.309ZM169.592 550.309L171.314 541.203H173.942L171.104 554H168.449L166.366 545.439L164.283 554H161.629L158.79 541.203H161.418L163.149 550.291L165.259 541.203H167.491L169.592 550.309ZM183.074 548.454H178.012V551.882H183.953V554H175.375V541.203H183.936V543.339H178.012V546.389H183.074V548.454ZM199.949 550.309L201.672 541.203H204.3L201.461 554H198.807L196.724 545.439L194.641 554H191.986L189.147 541.203H191.775L193.507 550.291L195.616 541.203H197.849L199.949 550.309ZM216.244 547.892C216.244 549.151 216.021 550.256 215.576 551.205C215.131 552.154 214.492 552.887 213.66 553.402C212.834 553.918 211.885 554.176 210.812 554.176C209.752 554.176 208.806 553.921 207.974 553.411C207.142 552.901 206.497 552.175 206.04 551.231C205.583 550.282 205.352 549.192 205.346 547.962V547.329C205.346 546.069 205.571 544.962 206.022 544.007C206.479 543.046 207.121 542.311 207.947 541.801C208.779 541.285 209.729 541.027 210.795 541.027C211.861 541.027 212.808 541.285 213.634 541.801C214.466 542.311 215.107 543.046 215.559 544.007C216.016 544.962 216.244 546.066 216.244 547.32V547.892ZM213.572 547.312C213.572 545.97 213.332 544.95 212.852 544.253C212.371 543.556 211.686 543.207 210.795 543.207C209.91 543.207 209.228 543.553 208.747 544.244C208.267 544.93 208.023 545.938 208.018 547.268V547.892C208.018 549.198 208.258 550.212 208.738 550.933C209.219 551.653 209.91 552.014 210.812 552.014C211.697 552.014 212.377 551.668 212.852 550.977C213.326 550.279 213.566 549.266 213.572 547.936V547.312ZM222.897 549.315H220.797V554H218.16V541.203H222.915C224.427 541.203 225.593 541.54 226.413 542.214C227.233 542.888 227.644 543.84 227.644 545.07C227.644 545.943 227.453 546.673 227.072 547.259C226.697 547.839 226.126 548.302 225.358 548.647L228.127 553.877V554H225.297L222.897 549.315ZM220.797 547.18H222.924C223.586 547.18 224.099 547.013 224.462 546.679C224.825 546.339 225.007 545.873 225.007 545.281C225.007 544.678 224.834 544.203 224.488 543.857C224.148 543.512 223.624 543.339 222.915 543.339H220.797V547.18ZM233.664 548.867L232.293 550.344V554H229.656V541.203H232.293V547.004L233.453 545.413L236.714 541.203H239.957L235.413 546.89L240.089 554H236.951L233.664 548.867ZM242.989 550.071C242.989 549.251 243.089 548.598 243.288 548.111C243.487 547.625 243.851 547.147 244.378 546.679C244.911 546.204 245.266 545.82 245.441 545.527C245.617 545.229 245.705 544.915 245.705 544.587C245.705 543.597 245.248 543.102 244.334 543.102C243.9 543.102 243.552 543.236 243.288 543.506C243.03 543.77 242.896 544.136 242.884 544.604H240.335C240.347 543.485 240.707 542.609 241.416 541.977C242.131 541.344 243.104 541.027 244.334 541.027C245.576 541.027 246.54 541.329 247.226 541.933C247.911 542.53 248.254 543.377 248.254 544.473C248.254 544.971 248.143 545.442 247.92 545.888C247.697 546.327 247.308 546.816 246.751 547.355L246.039 548.032C245.594 548.46 245.339 548.961 245.274 549.535L245.239 550.071H242.989ZM242.734 552.77C242.734 552.377 242.866 552.055 243.13 551.803C243.399 551.545 243.742 551.416 244.158 551.416C244.574 551.416 244.914 551.545 245.178 551.803C245.447 552.055 245.582 552.377 245.582 552.77C245.582 553.156 245.45 553.476 245.187 553.728C244.929 553.979 244.586 554.105 244.158 554.105C243.73 554.105 243.385 553.979 243.121 553.728C242.863 553.476 242.734 553.156 242.734 552.77Z" fill="black"/>
<defs>
<linearGradient id="paint0_linear" x1="180" y1="0" x2="180" y2="640" gradientUnits="userSpaceOnUse">
<stop offset="0.000280449" stop-color="#C7F4F7"/>
<stop offset="0.302083" stop-color="#D1F4F6"/>
<stop offset="0.854167" stop-color="#E5F4F5"/>
<stop offset="1" stop-color="#00CCF9"/>
</linearGradient>
</defs>
</svg>
